<svg width="24" height="24" viewBox="0 0 24 24" fill="none" xmlns="http://www.w3.org/2000/svg">
  <path d="M12 2.25L12.6708 0.908359C12.2485 0.697214 11.7515 0.697214 11.3292 0.908359L12 2.25ZM1.32918 5.90836C0.588212 6.27884 0.287875 7.17985 0.658359 7.92082C1.02884 8.66179 1.92985 8.96212 2.67082 8.59164L1.32918 5.90836ZM21.3292 8.59164C22.0701 8.96212 22.9712 8.66179 23.3416 7.92082C23.7121 7.17985 23.4118 6.27884 22.6708 5.90836L21.3292 8.59164ZM11.3292 0.908359L1.32918 5.90836L2.67082 8.59164L12.6708 3.59164L11.3292 0.908359ZM11.3292 3.59164L21.3292 8.59164L22.6708 5.90836L12.6708 0.908359L11.3292 3.59164Z" fill="#0F1518"/>
  <rect x="9.5" y="9.5" width="5" height="5" rx="1.25" stroke="#0F1518" stroke-width="2"/>
  <path d="M4 6.65L3.27712 5.33568L2.39228 5.82234L2.51027 6.82526L4 6.65ZM5.6 20.25L4.11027 20.4253C4.19915 21.1807 4.83937 21.75 5.6 21.75V20.25ZM18.4 20.25V21.75C19.1606 21.75 19.8009 21.1807 19.8897 20.4253L18.4 20.25ZM20 6.65L21.4897 6.82526L21.6077 5.82234L20.7229 5.33568L20 6.65ZM12 2.25L12.7229 0.935676C12.2728 0.688108 11.7272 0.688108 11.2771 0.935676L12 2.25ZM2.51027 6.82526L4.11027 20.4253L7.08973 20.0747L5.48973 6.47474L2.51027 6.82526ZM5.6 21.75H18.4V18.75H5.6V21.75ZM19.8897 20.4253L21.4897 6.82526L18.5103 6.47474L16.9103 20.0747L19.8897 20.4253ZM20.7229 5.33568L12.7229 0.935676L11.2771 3.56432L19.2771 7.96432L20.7229 5.33568ZM11.2771 0.935676L3.27712 5.33568L4.72288 7.96432L12.7229 3.56432L11.2771 0.935676Z" fill="#0F1518"/>
</svg>
